<svg xmlns="http://www.w3.org/2000/svg" viewBox="0 0 680 680" width="680" height="680" role="img">
<title>Jericho black lion avatar</title>
<desc>An original black lion head with a full layered mane, fur texture, bright cool rim-lighting, a furrowed brow, and glowing cyan slit eyes, on a dark background.</desc>
<rect x="0" y="0" width="680" height="680" fill="#05070f"/>
<g transform="translate(0,-40)">
<ellipse cx="340" cy="370" rx="312" ry="320" fill="#0a1322"/>
<ellipse cx="340" cy="350" rx="232" ry="244" fill="#0e1830"/>
<path d="M640,380 L567,441 L600,530 L506,546 L490,640 L401,607 L340,680 L279,607 L190,640 L174,546 L80,530 L113,441 L40,380 L113,319 L80,230 L174,214 L190,120 L279,153 L340,80 L401,153 L490,120 L506,214 L600,230 L567,319 Z" fill="#090e1a" stroke="#2a3a52" stroke-width="1" stroke-linejoin="round"/>
<g stroke="#080d18" stroke-width="0.9" opacity="0.55" stroke-linecap="round">
<line x1="234" y1="274" x2="174" y2="214"/><line x1="446" y1="274" x2="506" y2="214"/><line x1="210" y1="455" x2="137" y2="498"/><line x1="470" y1="455" x2="543" y2="498"/><line x1="195" y1="419" x2="113" y2="441"/><line x1="485" y1="419" x2="567" y2="441"/><line x1="300" y1="470" x2="285" y2="560"/><line x1="380" y1="470" x2="395" y2="560"/>
</g>
<path d="M545,380 L593,448 L518,483 L525,565 L443,558 L408,633 L340,585 L272,633 L237,558 L155,565 L162,483 L87,448 L135,380 L87,312 L162,277 L155,195 L237,202 L272,127 L340,175 L408,127 L443,202 L525,195 L518,277 L593,312 Z" fill="#10172b"/>
<path d="M565,380 L512,426 L535,493 L466,506 L453,575 L386,552 L340,605 L294,552 L227,575 L214,506 L145,493 L168,426 L115,380 L168,334 L145,267 L214,254 L227,185 L294,208 L340,155 L386,208 L453,185 L466,254 L535,267 L512,334 Z" fill="#18233c"/>
<g stroke="#2c3c5c" stroke-width="0.9" opacity="0.5" stroke-linecap="round">
<line x1="340" y1="180" x2="340" y2="105"/><line x1="240" y1="207" x2="202" y2="142"/><line x1="440" y1="207" x2="478" y2="142"/><line x1="167" y1="280" x2="102" y2="242"/><line x1="513" y1="280" x2="578" y2="242"/><line x1="140" y1="380" x2="65" y2="380"/><line x1="540" y1="380" x2="615" y2="380"/><line x1="288" y1="187" x2="269" y2="114"/><line x1="392" y1="187" x2="411" y2="114"/>
</g>
<path d="M310,118 L340,86 L370,118" fill="none" stroke="#6fc4e0" stroke-width="1.8" opacity="0.85" stroke-linejoin="round" stroke-linecap="round"/>
<path d="M168,162 L190,126 L222,150" fill="none" stroke="#5fb8d8" stroke-width="1.5" opacity="0.8" stroke-linejoin="round" stroke-linecap="round"/>
<path d="M512,150 L490,126 L458,150" fill="none" stroke="#5fb8d8" stroke-width="1.5" opacity="0.8" stroke-linejoin="round" stroke-linecap="round"/>
<path d="M340,86 L401,153" fill="none" stroke="#00d4ff" stroke-width="1" opacity="0.4"/>
<path d="M340,86 L279,153" fill="none" stroke="#00d4ff" stroke-width="1" opacity="0.4"/>
<path d="M340,272 C300,272 268,290 256,318 Q250,300 244,352 C242,418 262,478 296,514 C318,540 340,552 340,552 C340,552 362,540 384,514 C418,478 438,418 436,352 Q430,300 424,318 C412,290 380,272 340,272 Z" fill="#22304e"/>
<path d="M340,282 C288,282 254,310 252,360 C250,424 268,478 300,512 C320,536 340,548 340,548 C340,548 360,536 380,512 C412,478 430,424 428,360 C426,310 392,282 340,282 Z" fill="#1b2742"/>
<path d="M254,366 L298,394 L294,496 L272,472 C258,440 252,402 254,366 Z" fill="#121c30"/>
<path d="M426,366 L382,394 L386,496 L408,472 C422,440 428,402 426,366 Z" fill="#121c30"/>
<path d="M302,300 L378,300 L368,356 L312,356 Z" fill="#2a3a5c"/>
<path d="M268,300 C292,288 320,283 340,283 C360,283 388,288 412,300" fill="none" stroke="#74c8e4" stroke-width="2" opacity="0.85" stroke-linecap="round"/>
<path d="M300,286 C320,283 360,283 380,286" fill="none" stroke="#b8ecff" stroke-width="1" opacity="0.7" stroke-linecap="round"/>
<path d="M260,360 L306,346 L322,370 L302,363 L274,374 Z" fill="#0a1122"/>
<path d="M420,360 L374,346 L358,370 L378,363 L406,374 Z" fill="#0a1122"/>
<path d="M338,348 L332,376 M342,348 L348,376" stroke="#0a1122" stroke-width="3" fill="none" stroke-linecap="round"/>
<ellipse cx="296" cy="382" rx="60" ry="44" fill="#00d4ff" opacity="0.09"/>
<ellipse cx="384" cy="382" rx="60" ry="44" fill="#00d4ff" opacity="0.09"/>
<path d="M334,402 Q296,358 252,354 Q270,398 334,402 Z" fill="#00d4ff" opacity="0.22"/>
<path d="M328,394 Q298,364 258,360 Q276,390 328,394 Z" fill="#050b14"/>
<path d="M326,392 Q298,366 262,363 Q280,388 326,392 Z" fill="#e2f7ff"/>
<ellipse cx="293" cy="379" rx="13" ry="6" fill="#ffffff"/>
<path d="M326,392 Q298,366 262,363" fill="none" stroke="#74ecff" stroke-width="1.4" stroke-linecap="round"/>
<path d="M346,402 Q384,358 428,354 Q410,398 346,402 Z" fill="#00d4ff" opacity="0.22"/>
<path d="M352,394 Q382,364 422,360 Q404,390 352,394 Z" fill="#050b14"/>
<path d="M354,392 Q382,366 418,363 Q400,388 354,392 Z" fill="#e2f7ff"/>
<ellipse cx="387" cy="379" rx="13" ry="6" fill="#ffffff"/>
<path d="M354,392 Q382,366 418,363" fill="none" stroke="#74ecff" stroke-width="1.4" stroke-linecap="round"/>
<path d="M310,442 Q340,433 370,442 L356,476 Q340,492 324,476 Z" fill="#07101c"/>
<path d="M315,444 Q340,437 365,444" fill="none" stroke="#34466a" stroke-width="1.2" opacity="0.85"/>
<path d="M322,458 q5,7 12,4 M358,458 q-5,7 -12,4" stroke="#03070e" stroke-width="2" fill="none"/>
<path d="M340,492 L340,512" stroke="#1a2438" stroke-width="1.5" fill="none"/>
<path d="M340,512 Q314,524 290,517 M340,512 Q366,524 390,517" fill="none" stroke="#161f33" stroke-width="1.8" stroke-linecap="round"/>
<path d="M298,504 Q278,502 276,517 Q289,528 311,521 Q314,510 298,504 Z" fill="#14203a"/>
<path d="M382,504 Q402,502 404,517 Q391,528 369,521 Q366,510 382,504 Z" fill="#14203a"/>
<g fill="#34466a"><circle cx="286" cy="510" r="1.3"/><circle cx="290" cy="516" r="1.3"/><circle cx="296" cy="520" r="1.3"/><circle cx="394" cy="510" r="1.3"/><circle cx="390" cy="516" r="1.3"/><circle cx="384" cy="520" r="1.3"/></g>
<g stroke="#34466a" stroke-width="0.8" opacity="0.55" fill="none" stroke-linecap="round">
<path d="M276,510 Q244,504 218,510"/><path d="M276,517 Q244,522 220,531"/><path d="M404,510 Q436,504 462,510"/><path d="M404,517 Q436,522 460,531"/>
</g>
<ellipse cx="340" cy="540" rx="32" ry="13" fill="#060a12" opacity="0.6"/>
</g>
</svg>
